<?xml version="1.0" encoding="UTF-8" standalone="no"?>
<!DOCTYPE svg PUBLIC "-//W3C//DTD SVG 1.1//EN"
 "http://www.w3.org/Graphics/SVG/1.1/DTD/svg11.dtd">
<!-- Generated by graphviz version 2.40.1 (20161225.0304)
 -->
<!-- Title: G Pages: 1 -->
<svg width="1785pt" height="846pt"
 viewBox="0.00 0.00 1784.74 846.00" xmlns="http://www.w3.org/2000/svg" xmlns:xlink="http://www.w3.org/1999/xlink">
<g id="graph0" class="graph" transform="scale(1 1) rotate(0) translate(4 842)">
<title>G</title>
<polygon fill="#ffffff" stroke="transparent" points="-4,4 -4,-842 1780.7364,-842 1780.7364,4 -4,4"/>
<g id="clust2" class="cluster">
<title>cluster_3fcaca2d</title>
<polygon fill="none" stroke="#000000" stroke-dasharray="1,5" points="85.4856,-296 85.4856,-576 1035.3692,-576 1035.3692,-296 85.4856,-296"/>
<text text-anchor="middle" x="560.4274" y="-559.4" font-family="Times,serif" font-size="14.00" fill="#000000">File: main</text>
</g>
<g id="clust3" class="cluster">
<title>cluster_3ef21504</title>
<polygon fill="none" stroke="#000000" stroke-dasharray="1,5" points="416.7076,-304 416.7076,-543 1027.3692,-543 1027.3692,-304 416.7076,-304"/>
<text text-anchor="middle" x="722.0384" y="-526.4" font-family="Times,serif" font-size="14.00" fill="#000000">Class: ClauseMateAnalyzer</text>
</g>
<g id="clust4" class="cluster">
<title>cluster_5aea24f6</title>
<polygon fill="none" stroke="#000000" stroke-dasharray="1,5" points="859.0921,-584 859.0921,-830 1768.7364,-830 1768.7364,-584 859.0921,-584"/>
<text text-anchor="middle" x="1313.9143" y="-813.4" font-family="Times,serif" font-size="14.00" fill="#000000">File: relationship_extractor</text>
</g>
<g id="clust5" class="cluster">
<title>cluster_300af77a</title>
<polygon fill="none" stroke="#000000" stroke-dasharray="1,5" points="867.0921,-592 867.0921,-797 1760.7364,-797 1760.7364,-592 867.0921,-592"/>
<text text-anchor="middle" x="1313.9143" y="-780.4" font-family="Times,serif" font-size="14.00" fill="#000000">Class: RelationshipExtractor</text>
</g>
<g id="clust6" class="cluster">
<title>cluster_1fcf976</title>
<polygon fill="none" stroke="#000000" stroke-dasharray="1,5" points="577.7308,-8 577.7308,-288 1489.8407,-288 1489.8407,-8 577.7308,-8"/>
<text text-anchor="middle" x="1033.7858" y="-271.4" font-family="Times,serif" font-size="14.00" fill="#000000">File: tsv_parser</text>
</g>
<g id="clust7" class="cluster">
<title>cluster_fe1af2ee</title>
<polygon fill="none" stroke="#000000" stroke-dasharray="1,5" points="585.7308,-16 585.7308,-255 1260.8946,-255 1260.8946,-16 585.7308,-16"/>
<text text-anchor="middle" x="923.3127" y="-238.4" font-family="Times,serif" font-size="14.00" fill="#000000">Class: TSVParser</text>
</g>
<g id="clust8" class="cluster">
<title>cluster_3b7ae052</title>
<polygon fill="none" stroke="#000000" stroke-dasharray="1,5" points="1296.7081,-70 1296.7081,-201 1481.8407,-201 1481.8407,-70 1296.7081,-70"/>
<text text-anchor="middle" x="1389.2744" y="-184.4" font-family="Times,serif" font-size="14.00" fill="#000000">Class: DefaultTokenProcessor</text>
</g>
<!-- Legend -->
<g id="node1" class="node">
<title>Legend</title>
<polygon fill="none" stroke="#000000" points="1.5,-269 1.5,-287 270.5,-287 270.5,-269 1.5,-269"/>
<text text-anchor="start" x="82.1546" y="-273.4" font-family="Times,serif" font-size="14.00" fill="#000000">Code2flow Legend</text>
<polygon fill="none" stroke="#000000" points="1.5,-177 1.5,-269 270.5,-269 270.5,-177 1.5,-177"/>
<polygon fill="none" stroke="#000000" points="3.5,-245 3.5,-267 218.5,-267 218.5,-245 3.5,-245"/>
<text text-anchor="start" x="63.7633" y="-251.4" font-family="Times,serif" font-size="14.00" fill="#000000">Regular function</text>
<polygon fill="#cccccc" stroke="transparent" points="218.5,-245 218.5,-267 268.5,-267 268.5,-245 218.5,-245"/>
<polygon fill="none" stroke="#000000" points="218.5,-245 218.5,-267 268.5,-267 268.5,-245 218.5,-245"/>
<polygon fill="none" stroke="#000000" points="3.5,-223 3.5,-245 218.5,-245 218.5,-223 3.5,-223"/>
<text text-anchor="start" x="14.5736" y="-229.4" font-family="Times,serif" font-size="14.00" fill="#000000">Trunk function (nothing calls this)</text>
<polygon fill="#966f33" stroke="transparent" points="218.5,-223 218.5,-245 268.5,-245 268.5,-223 218.5,-223"/>
<polygon fill="none" stroke="#000000" points="218.5,-223 218.5,-245 268.5,-245 268.5,-223 218.5,-223"/>
<polygon fill="none" stroke="#000000" points="3.5,-201 3.5,-223 218.5,-223 218.5,-201 3.5,-201"/>
<text text-anchor="start" x="6.2268" y="-207.4" font-family="Times,serif" font-size="14.00" fill="#000000">Leaf function (this calls nothing else)</text>
<polygon fill="#6db33f" stroke="transparent" points="218.5,-201 218.5,-223 268.5,-223 268.5,-201 218.5,-201"/>
<polygon fill="none" stroke="#000000" points="218.5,-201 218.5,-223 268.5,-223 268.5,-201 218.5,-201"/>
<polygon fill="none" stroke="#000000" points="3.5,-179 3.5,-201 218.5,-201 218.5,-179 3.5,-179"/>
<text text-anchor="start" x="74.2556" y="-185.4" font-family="Times,serif" font-size="14.00" fill="#000000">Function call</text>
<polygon fill="none" stroke="#000000" points="218.5,-179 218.5,-201 268.5,-201 268.5,-179 218.5,-179"/>
<text text-anchor="start" x="238.25" y="-185.4" font-family="Times,serif" font-size="14.00" fill="#000000">→</text>
<polygon fill="none" stroke="#000000" points="2.5,-178 2.5,-268 269.5,-268 269.5,-178 2.5,-178"/>
<polygon fill="none" stroke="#000000" points="0,-176 0,-288 271,-288 271,-176 0,-176"/>
</g>
<!-- node_f6ffcca9 -->
<g id="node2" class="node">
<title>node_f6ffcca9</title>
<path fill="#966f33" stroke="#000000" d="M165.5288,-429C165.5288,-429 105.4712,-429 105.4712,-429 99.4712,-429 93.4712,-423 93.4712,-417 93.4712,-417 93.4712,-405 93.4712,-405 93.4712,-399 99.4712,-393 105.4712,-393 105.4712,-393 165.5288,-393 165.5288,-393 171.5288,-393 177.5288,-399 177.5288,-405 177.5288,-405 177.5288,-417 177.5288,-417 177.5288,-423 171.5288,-429 165.5288,-429"/>
<text text-anchor="middle" x="135.5" y="-406.8" font-family="Times,serif" font-size="14.00" fill="#000000">0: (global)()</text>
</g>
<!-- node_579f30f0 -->
<g id="node10" class="node">
<title>node_579f30f0</title>
<path fill="#cccccc" stroke="#000000" d="M376.5619,-429C376.5619,-429 319.1457,-429 319.1457,-429 313.1457,-429 307.1457,-423 307.1457,-417 307.1457,-417 307.1457,-405 307.1457,-405 307.1457,-399 313.1457,-393 319.1457,-393 319.1457,-393 376.5619,-393 376.5619,-393 382.5619,-393 388.5619,-399 388.5619,-405 388.5619,-405 388.5619,-417 388.5619,-417 388.5619,-423 382.5619,-429 376.5619,-429"/>
<text text-anchor="middle" x="347.8538" y="-406.8" font-family="Times,serif" font-size="14.00" fill="#000000">246: main()</text>
</g>
<!-- node_f6ffcca9&#45;&gt;node_579f30f0 -->
<g id="edge1" class="edge">
<title>node_f6ffcca9&#45;&gt;node_579f30f0</title>
<path fill="none" stroke="#e69f00" stroke-width="2" d="M177.7082,-411C177.7082,-411 296.8086,-411 296.8086,-411"/>
<polygon fill="#e69f00" stroke="#e69f00" stroke-width="2" points="296.8086,-414.5001 306.8086,-411 296.8086,-407.5001 296.8086,-414.5001"/>
</g>
<!-- node_3198fd76 -->
<g id="node3" class="node">
<title>node_3198fd76</title>
<path fill="#cccccc" stroke="#000000" d="M526.1036,-456C526.1036,-456 456.3348,-456 456.3348,-456 450.3348,-456 444.3348,-450 444.3348,-444 444.3348,-444 444.3348,-432 444.3348,-432 444.3348,-426 450.3348,-420 456.3348,-420 456.3348,-420 526.1036,-420 526.1036,-420 532.1036,-420 538.1036,-426 538.1036,-432 538.1036,-432 538.1036,-444 538.1036,-444 538.1036,-450 532.1036,-456 526.1036,-456"/>
<text text-anchor="middle" x="491.2192" y="-433.8" font-family="Times,serif" font-size="14.00" fill="#000000">54: __init__()</text>
</g>
<!-- node_fea27965 -->
<g id="node21" class="node">
<title>node_fea27965</title>
<path fill="#6db30f" stroke="#000000" d="M721.556,-222C721.556,-222 651.7872,-222 651.7872,-222 645.7872,-222 639.7872,-216 639.7872,-210 639.7872,-210 639.7872,-198 639.7872,-198 639.7872,-192 645.7872,-186 651.7872,-186 651.7872,-186 721.556,-186 721.556,-186 727.556,-186 733.556,-192 733.556,-198 733.556,-198 733.556,-210 733.556,-210 733.556,-216 727.556,-222 721.556,-222"/>
<text text-anchor="middle" x="686.6716" y="-199.8" font-family="Times,serif" font-size="14.00" fill="#000000">28: __init__()</text>
</g>
<!-- node_3198fd76&#45;&gt;node_fea27965 -->
<g id="edge2" class="edge">
<title>node_3198fd76&#45;&gt;node_fea27965</title>
<path fill="none" stroke="#d55e00" stroke-width="2" d="M537.9274,-432C557.4739,-432 575.7364,-432 575.7364,-432 575.7364,-432 575.7364,-204 575.7364,-204 575.7364,-204 629.9466,-204 629.9466,-204"/>
<polygon fill="#d55e00" stroke="#d55e00" stroke-width="2" points="629.9466,-207.5001 639.9466,-204 629.9466,-200.5001 629.9466,-207.5001"/>
</g>
<!-- node_1e0a34bd -->
<g id="node4" class="node">
<title>node_1e0a34bd</title>
<path fill="#cccccc" stroke="#000000" d="M755.4482,-510C755.4482,-510 617.895,-510 617.895,-510 611.895,-510 605.895,-504 605.895,-498 605.895,-498 605.895,-486 605.895,-486 605.895,-480 611.895,-474 617.895,-474 617.895,-474 755.4482,-474 755.4482,-474 761.4482,-474 767.4482,-480 767.4482,-486 767.4482,-486 767.4482,-498 767.4482,-498 767.4482,-504 761.4482,-510 755.4482,-510"/>
<text text-anchor="middle" x="686.6716" y="-487.8" font-family="Times,serif" font-size="14.00" fill="#000000">113: _analyze_complete()</text>
</g>
<!-- node_7f773000 -->
<g id="node6" class="node">
<title>node_7f773000</title>
<path fill="#6db30f" stroke="#000000" d="M1007.2477,-510C1007.2477,-510 827.7339,-510 827.7339,-510 821.7339,-510 815.7339,-504 815.7339,-498 815.7339,-498 815.7339,-486 815.7339,-486 815.7339,-480 821.7339,-474 827.7339,-474 827.7339,-474 1007.2477,-474 1007.2477,-474 1013.2477,-474 1019.2477,-480 1019.2477,-486 1019.2477,-486 1019.2477,-498 1019.2477,-498 1019.2477,-504 1013.2477,-510 1007.2477,-510"/>
<text text-anchor="middle" x="917.4908" y="-487.8" font-family="Times,serif" font-size="14.00" fill="#000000">238: _extract_sentence_number()</text>
</g>
<!-- node_1e0a34bd&#45;&gt;node_7f773000 -->
<g id="edge3" class="edge">
<title>node_1e0a34bd&#45;&gt;node_7f773000</title>
<path fill="none" stroke="#0072b2" stroke-width="2" d="M767.7253,-498C767.7253,-498 805.5579,-498 805.5579,-498"/>
<polygon fill="#0072b2" stroke="#0072b2" stroke-width="2" points="805.5579,-501.5001 815.5579,-498 805.5579,-494.5001 805.5579,-501.5001"/>
</g>
<!-- node_8109aeee -->
<g id="node16" class="node">
<title>node_8109aeee</title>
<path fill="#cccccc" stroke="#000000" d="M947.7884,-636C947.7884,-636 887.1932,-636 887.1932,-636 881.1932,-636 875.1932,-630 875.1932,-624 875.1932,-624 875.1932,-612 875.1932,-612 875.1932,-606 881.1932,-600 887.1932,-600 887.1932,-600 947.7884,-600 947.7884,-600 953.7884,-600 959.7884,-606 959.7884,-612 959.7884,-612 959.7884,-624 959.7884,-624 959.7884,-630 953.7884,-636 947.7884,-636"/>
<text text-anchor="middle" x="917.4908" y="-613.8" font-family="Times,serif" font-size="14.00" fill="#000000">39: extract()</text>
</g>
<!-- node_1e0a34bd&#45;&gt;node_8109aeee -->
<g id="edge4" class="edge">
<title>node_1e0a34bd&#45;&gt;node_8109aeee</title>
<path fill="none" stroke="#0072b2" stroke-width="2" d="M686.7364,-510.0773C686.7364,-546.2287 686.7364,-624 686.7364,-624 686.7364,-624 865.1669,-624 865.1669,-624"/>
<polygon fill="#0072b2" stroke="#0072b2" stroke-width="2" points="865.1669,-627.5001 875.1669,-624 865.1669,-620.5001 865.1669,-627.5001"/>
</g>
<!-- node_e588f6df -->
<g id="node28" class="node">
<title>node_e588f6df</title>
<path fill="#cccccc" stroke="#000000" d="M1002.1371,-195C1002.1371,-195 832.8445,-195 832.8445,-195 826.8445,-195 820.8445,-189 820.8445,-183 820.8445,-183 820.8445,-171 820.8445,-171 820.8445,-165 826.8445,-159 832.8445,-159 832.8445,-159 1002.1371,-159 1002.1371,-159 1008.1371,-159 1014.1371,-165 1014.1371,-171 1014.1371,-171 1014.1371,-183 1014.1371,-183 1014.1371,-189 1008.1371,-195 1002.1371,-195"/>
<text text-anchor="middle" x="917.4908" y="-172.8" font-family="Times,serif" font-size="14.00" fill="#000000">69: parse_sentence_streaming()</text>
</g>
<!-- node_1e0a34bd&#45;&gt;node_e588f6df -->
<g id="edge7" class="edge">
<title>node_1e0a34bd&#45;&gt;node_e588f6df</title>
<path fill="none" stroke="#0072b2" stroke-width="2" d="M767.4749,-486C771.3929,-486 773.7364,-486 773.7364,-486 773.7364,-486 773.7364,-192 773.7364,-192 773.7364,-192 810.807,-192 810.807,-192"/>
<polygon fill="#0072b2" stroke="#0072b2" stroke-width="2" points="810.807,-195.5001 820.807,-192 810.8069,-188.5001 810.807,-195.5001"/>
</g>
<!-- node_aca7d719 -->
<g id="node5" class="node">
<title>node_aca7d719</title>
<path fill="#cccccc" stroke="#000000" d="M757.3389,-456C757.3389,-456 616.0043,-456 616.0043,-456 610.0043,-456 604.0043,-450 604.0043,-444 604.0043,-444 604.0043,-432 604.0043,-432 604.0043,-426 610.0043,-420 616.0043,-420 616.0043,-420 757.3389,-420 757.3389,-420 763.3389,-420 769.3389,-426 769.3389,-432 769.3389,-432 769.3389,-444 769.3389,-444 769.3389,-450 763.3389,-456 757.3389,-456"/>
<text text-anchor="middle" x="686.6716" y="-433.8" font-family="Times,serif" font-size="14.00" fill="#000000">167: _analyze_streaming()</text>
</g>
<!-- node_aca7d719&#45;&gt;node_8109aeee -->
<g id="edge8" class="edge">
<title>node_aca7d719&#45;&gt;node_8109aeee</title>
<path fill="none" stroke="#e69f00" stroke-width="2" d="M769.366,-438C773.9535,-438 776.7364,-438 776.7364,-438 776.7364,-438 776.7364,-612 776.7364,-612 776.7364,-612 864.8779,-612 864.8779,-612"/>
<polygon fill="#e69f00" stroke="#e69f00" stroke-width="2" points="864.8779,-615.5001 874.8779,-612 864.8778,-608.5001 864.8779,-615.5001"/>
</g>
<!-- node_aca7d719&#45;&gt;node_e588f6df -->
<g id="edge9" class="edge">
<title>node_aca7d719&#45;&gt;node_e588f6df</title>
<path fill="none" stroke="#e69f00" stroke-width="2" d="M753.7364,-419.6904C753.7364,-362.187 753.7364,-189 753.7364,-189 753.7364,-189 810.8141,-189 810.8141,-189"/>
<polygon fill="#e69f00" stroke="#e69f00" stroke-width="2" points="810.8141,-192.5001 820.8141,-189 810.814,-185.5001 810.8141,-192.5001"/>
</g>
<!-- node_27f1cfcf -->
<g id="node7" class="node">
<title>node_27f1cfcf</title>
<path fill="#cccccc" stroke="#000000" d="M536.8365,-510C536.8365,-510 445.6019,-510 445.6019,-510 439.6019,-510 433.6019,-504 433.6019,-498 433.6019,-498 433.6019,-486 433.6019,-486 433.6019,-480 439.6019,-474 445.6019,-474 445.6019,-474 536.8365,-474 536.8365,-474 542.8365,-474 548.8365,-480 548.8365,-486 548.8365,-486 548.8365,-498 548.8365,-498 548.8365,-504 542.8365,-510 536.8365,-510"/>
<text text-anchor="middle" x="491.2192" y="-487.8" font-family="Times,serif" font-size="14.00" fill="#000000">87: analyze_file()</text>
</g>
<!-- node_27f1cfcf&#45;&gt;node_1e0a34bd -->
<g id="edge10" class="edge">
<title>node_27f1cfcf&#45;&gt;node_1e0a34bd</title>
<path fill="none" stroke="#cc79a7" stroke-width="2" d="M548.8042,-492C548.8042,-492 595.6038,-492 595.6038,-492"/>
<polygon fill="#cc79a7" stroke="#cc79a7" stroke-width="2" points="595.6039,-495.5001 605.6038,-492 595.6038,-488.5001 595.6039,-495.5001"/>
</g>
<!-- node_27f1cfcf&#45;&gt;node_aca7d719 -->
<g id="edge11" class="edge">
<title>node_27f1cfcf&#45;&gt;node_aca7d719</title>
<path fill="none" stroke="#cc79a7" stroke-width="2" d="M543.7364,-473.8533C543.7364,-460.2605 543.7364,-444 543.7364,-444 543.7364,-444 593.9395,-444 593.9395,-444"/>
<polygon fill="#cc79a7" stroke="#cc79a7" stroke-width="2" points="593.9396,-447.5001 603.9395,-444 593.9395,-440.5001 593.9396,-447.5001"/>
</g>
<!-- node_47c58137 -->
<g id="node8" class="node">
<title>node_47c58137</title>
<path fill="#6db30f" stroke="#000000" d="M545.7424,-402C545.7424,-402 436.696,-402 436.696,-402 430.696,-402 424.696,-396 424.696,-390 424.696,-390 424.696,-378 424.696,-378 424.696,-372 430.696,-366 436.696,-366 436.696,-366 545.7424,-366 545.7424,-366 551.7424,-366 557.7424,-372 557.7424,-378 557.7424,-378 557.7424,-390 557.7424,-390 557.7424,-396 551.7424,-402 545.7424,-402"/>
<text text-anchor="middle" x="491.2192" y="-379.8" font-family="Times,serif" font-size="14.00" fill="#000000">198: export_results()</text>
</g>
<!-- node_ff68e1cf -->
<g id="node9" class="node">
<title>node_ff68e1cf</title>
<path fill="#6db30f" stroke="#000000" d="M542.2522,-348C542.2522,-348 440.1862,-348 440.1862,-348 434.1862,-348 428.1862,-342 428.1862,-336 428.1862,-336 428.1862,-324 428.1862,-324 428.1862,-318 434.1862,-312 440.1862,-312 440.1862,-312 542.2522,-312 542.2522,-312 548.2522,-312 554.2522,-318 554.2522,-324 554.2522,-324 554.2522,-336 554.2522,-336 554.2522,-342 548.2522,-348 542.2522,-348"/>
<text text-anchor="middle" x="491.2192" y="-325.8" font-family="Times,serif" font-size="14.00" fill="#000000">230: get_statistics()</text>
</g>
<!-- node_579f30f0&#45;&gt;node_3198fd76 -->
<g id="edge12" class="edge">
<title>node_579f30f0&#45;&gt;node_3198fd76</title>
<path fill="none" stroke="#000000" stroke-width="2" d="M388.9366,-423C388.9366,-423 434.3217,-423 434.3217,-423"/>
<polygon fill="#000000" stroke="#000000" stroke-width="2" points="434.3218,-426.5001 444.3217,-423 434.3217,-419.5001 434.3218,-426.5001"/>
</g>
<!-- node_579f30f0&#45;&gt;node_27f1cfcf -->
<g id="edge13" class="edge">
<title>node_579f30f0&#45;&gt;node_27f1cfcf</title>
<path fill="none" stroke="#000000" stroke-width="2" d="M388.6899,-426C413.2295,-426 439.7364,-426 439.7364,-426 439.7364,-426 439.7364,-463.9652 439.7364,-463.9652"/>
<polygon fill="#000000" stroke="#000000" stroke-width="2" points="436.2365,-463.9652 439.7364,-473.9652 443.2365,-463.9652 436.2365,-463.9652"/>
</g>
<!-- node_579f30f0&#45;&gt;node_47c58137 -->
<g id="edge14" class="edge">
<title>node_579f30f0&#45;&gt;node_47c58137</title>
<path fill="none" stroke="#000000" stroke-width="2" d="M388.9366,-397.5C388.9366,-397.5 414.6884,-397.5 414.6884,-397.5"/>
<polygon fill="#000000" stroke="#000000" stroke-width="2" points="414.6884,-401.0001 424.6884,-397.5 414.6884,-394.0001 414.6884,-401.0001"/>
</g>
<!-- node_579f30f0&#45;&gt;node_ff68e1cf -->
<g id="edge15" class="edge">
<title>node_579f30f0&#45;&gt;node_ff68e1cf</title>
<path fill="none" stroke="#000000" stroke-width="2" d="M348.7364,-392.6198C348.7364,-368.7215 348.7364,-330 348.7364,-330 348.7364,-330 417.8944,-330 417.8944,-330"/>
<polygon fill="#000000" stroke="#000000" stroke-width="2" points="417.8944,-333.5001 427.8944,-330 417.8944,-326.5001 417.8944,-333.5001"/>
</g>
<!-- node_095cc69b -->
<g id="node11" class="node">
<title>node_095cc69b</title>
<path fill="#cccccc" stroke="#000000" d="M1464.5342,-636C1464.5342,-636 1313.0146,-636 1313.0146,-636 1307.0146,-636 1301.0146,-630 1301.0146,-624 1301.0146,-624 1301.0146,-612 1301.0146,-612 1301.0146,-606 1307.0146,-600 1313.0146,-600 1313.0146,-600 1464.5342,-600 1464.5342,-600 1470.5342,-600 1476.5342,-606 1476.5342,-612 1476.5342,-612 1476.5342,-624 1476.5342,-624 1476.5342,-630 1470.5342,-636 1464.5342,-636"/>
<text text-anchor="middle" x="1388.7744" y="-613.8" font-family="Times,serif" font-size="14.00" fill="#000000">285: _analyze_antecedents()</text>
</g>
<!-- node_44dc4c7e -->
<g id="node14" class="node">
<title>node_44dc4c7e</title>
<path fill="#6db30f" stroke="#000000" d="M1735.6527,-636C1735.6527,-636 1542.7379,-636 1542.7379,-636 1536.7379,-636 1530.7379,-630 1530.7379,-624 1530.7379,-624 1530.7379,-612 1530.7379,-612 1530.7379,-606 1536.7379,-600 1542.7379,-600 1542.7379,-600 1735.6527,-600 1735.6527,-600 1741.6527,-600 1747.6527,-606 1747.6527,-612 1747.6527,-612 1747.6527,-624 1747.6527,-624 1747.6527,-630 1741.6527,-636 1735.6527,-636"/>
<text text-anchor="middle" x="1639.1953" y="-613.8" font-family="Times,serif" font-size="14.00" fill="#000000">441: _extract_occurrence_number()</text>
</g>
<!-- node_095cc69b&#45;&gt;node_44dc4c7e -->
<g id="edge16" class="edge">
<title>node_095cc69b&#45;&gt;node_44dc4c7e</title>
<path fill="none" stroke="#009e73" stroke-width="2" d="M1476.7113,-624C1476.7113,-624 1520.3564,-624 1520.3564,-624"/>
<polygon fill="#009e73" stroke="#009e73" stroke-width="2" points="1520.3565,-627.5001 1530.3564,-624 1520.3564,-620.5001 1520.3565,-627.5001"/>
</g>
<!-- node_c4de6f11 -->
<g id="node15" class="node">
<title>node_c4de6f11</title>
<path fill="#6db30f" stroke="#000000" d="M1740.7775,-690C1740.7775,-690 1537.6131,-690 1537.6131,-690 1531.6131,-690 1525.6131,-684 1525.6131,-678 1525.6131,-678 1525.6131,-666 1525.6131,-666 1525.6131,-660 1531.6131,-654 1537.6131,-654 1537.6131,-654 1740.7775,-654 1740.7775,-654 1746.7775,-654 1752.7775,-660 1752.7775,-666 1752.7775,-666 1752.7775,-678 1752.7775,-678 1752.7775,-684 1746.7775,-690 1740.7775,-690"/>
<text text-anchor="middle" x="1639.1953" y="-667.8" font-family="Times,serif" font-size="14.00" fill="#000000">185: _get_pronoun_coreference_ids()</text>
</g>
<!-- node_095cc69b&#45;&gt;node_c4de6f11 -->
<g id="edge17" class="edge">
<title>node_095cc69b&#45;&gt;node_c4de6f11</title>
<path fill="none" stroke="#009e73" stroke-width="2" d="M1476.6665,-612C1491.2496,-612 1501.7364,-612 1501.7364,-612 1501.7364,-612 1501.7364,-666 1501.7364,-666 1501.7364,-666 1515.3664,-666 1515.3664,-666"/>
<polygon fill="#009e73" stroke="#009e73" stroke-width="2" points="1515.3665,-669.5001 1525.3664,-666 1515.3664,-662.5001 1515.3665,-669.5001"/>
</g>
<!-- node_df748bee -->
<g id="node12" class="node">
<title>node_df748bee</title>
<path fill="#cccccc" stroke="#000000" d="M1458.8916,-764C1458.8916,-764 1318.6572,-764 1318.6572,-764 1312.6572,-764 1306.6572,-758 1306.6572,-752 1306.6572,-752 1306.6572,-740 1306.6572,-740 1306.6572,-734 1312.6572,-728 1318.6572,-728 1318.6572,-728 1458.8916,-728 1458.8916,-728 1464.8916,-728 1470.8916,-734 1470.8916,-740 1470.8916,-740 1470.8916,-752 1470.8916,-752 1470.8916,-758 1464.8916,-764 1458.8916,-764"/>
<text text-anchor="middle" x="1388.7744" y="-741.8" font-family="Times,serif" font-size="14.00" fill="#000000">228: _convert_to_phrase()</text>
</g>
<!-- node_527f5e13 -->
<g id="node13" class="node">
<title>node_527f5e13</title>
<path fill="#6db30f" stroke="#000000" d="M1712.8083,-764C1712.8083,-764 1565.5823,-764 1565.5823,-764 1559.5823,-764 1553.5823,-758 1553.5823,-752 1553.5823,-752 1553.5823,-740 1553.5823,-740 1553.5823,-734 1559.5823,-728 1565.5823,-728 1565.5823,-728 1712.8083,-728 1712.8083,-728 1718.8083,-728 1724.8083,-734 1724.8083,-740 1724.8083,-740 1724.8083,-752 1724.8083,-752 1724.8083,-758 1718.8083,-764 1712.8083,-764"/>
<text text-anchor="middle" x="1639.1953" y="-741.8" font-family="Times,serif" font-size="14.00" fill="#000000">257: _determine_animacy()</text>
</g>
<!-- node_df748bee&#45;&gt;node_527f5e13 -->
<g id="edge18" class="edge">
<title>node_df748bee&#45;&gt;node_527f5e13</title>
<path fill="none" stroke="#d55e00" stroke-width="2" d="M1471.1184,-746C1471.1184,-746 1543.3643,-746 1543.3643,-746"/>
<polygon fill="#d55e00" stroke="#d55e00" stroke-width="2" points="1543.3643,-749.5001 1553.3643,-746 1543.3643,-742.5001 1543.3643,-749.5001"/>
</g>
<!-- node_3ed52370 -->
<g id="node17" class="node">
<title>node_3ed52370</title>
<path fill="#cccccc" stroke="#000000" d="M1223.9711,-681C1223.9711,-681 1084.2927,-681 1084.2927,-681 1078.2927,-681 1072.2927,-675 1072.2927,-669 1072.2927,-669 1072.2927,-657 1072.2927,-657 1072.2927,-651 1078.2927,-645 1084.2927,-645 1084.2927,-645 1223.9711,-645 1223.9711,-645 1229.9711,-645 1235.9711,-651 1235.9711,-657 1235.9711,-657 1235.9711,-669 1235.9711,-669 1235.9711,-675 1229.9711,-681 1223.9711,-681"/>
<text text-anchor="middle" x="1154.1319" y="-658.8" font-family="Times,serif" font-size="14.00" fill="#000000">83: extract_relationships()</text>
</g>
<!-- node_8109aeee&#45;&gt;node_3ed52370 -->
<g id="edge19" class="edge">
<title>node_8109aeee&#45;&gt;node_3ed52370</title>
<path fill="none" stroke="#d55e00" stroke-width="2" d="M917.7364,-636.0439C917.7364,-648.5633 917.7364,-663 917.7364,-663 917.7364,-663 1062.447,-663 1062.447,-663"/>
<polygon fill="#d55e00" stroke="#d55e00" stroke-width="2" points="1062.447,-666.5001 1072.447,-663 1062.4469,-659.5001 1062.447,-666.5001"/>
</g>
<!-- node_3ed52370&#45;&gt;node_095cc69b -->
<g id="edge20" class="edge">
<title>node_3ed52370&#45;&gt;node_095cc69b</title>
<path fill="none" stroke="#000000" stroke-width="2" d="M1235.8737,-648C1303.9219,-648 1389.7364,-648 1389.7364,-648 1389.7364,-648 1389.7364,-646.1432 1389.7364,-646.1432"/>
<polygon fill="#000000" stroke="#000000" stroke-width="2" points="1393.2365,-646.1432 1389.7364,-636.1432 1386.2365,-646.1432 1393.2365,-646.1432"/>
</g>
<!-- node_3ed52370&#45;&gt;node_df748bee -->
<g id="edge21" class="edge">
<title>node_3ed52370&#45;&gt;node_df748bee</title>
<path fill="none" stroke="#000000" stroke-width="2" d="M1154.7364,-681.0098C1154.7364,-705.4207 1154.7364,-746 1154.7364,-746 1154.7364,-746 1296.5904,-746 1296.5904,-746"/>
<polygon fill="#000000" stroke="#000000" stroke-width="2" points="1296.5905,-749.5001 1306.5904,-746 1296.5904,-742.5001 1296.5905,-749.5001"/>
</g>
<!-- node_3ed52370&#45;&gt;node_c4de6f11 -->
<g id="edge22" class="edge">
<title>node_3ed52370&#45;&gt;node_c4de6f11</title>
<path fill="none" stroke="#000000" stroke-width="2" d="M1235.959,-651C1374.3525,-651 1639.7364,-651 1639.7364,-651 1639.7364,-651 1639.7364,-651.292 1639.7364,-651.292"/>
<polygon fill="#000000" stroke="#000000" stroke-width="2" points="1636.2368,-643.9198 1639.7364,-653.92 1643.2368,-643.9201 1636.2368,-643.9198"/>
</g>
<!-- node_da72f235 -->
<g id="node18" class="node">
<title>node_da72f235</title>
<path fill="#966f33" stroke="#000000" d="M1455.6714,-690C1455.6714,-690 1321.8774,-690 1321.8774,-690 1315.8774,-690 1309.8774,-684 1309.8774,-678 1309.8774,-678 1309.8774,-666 1309.8774,-666 1309.8774,-660 1315.8774,-654 1321.8774,-654 1321.8774,-654 1455.6714,-654 1455.6714,-654 1461.6714,-654 1467.6714,-660 1467.6714,-666 1467.6714,-666 1467.6714,-678 1467.6714,-678 1467.6714,-684 1461.6714,-690 1455.6714,-690"/>
<text text-anchor="middle" x="1388.7744" y="-667.8" font-family="Times,serif" font-size="14.00" fill="#000000">140: find_clause_mates()</text>
</g>
<!-- node_da72f235&#45;&gt;node_c4de6f11 -->
<g id="edge23" class="edge">
<title>node_da72f235&#45;&gt;node_c4de6f11</title>
<path fill="none" stroke="#0072b2" stroke-width="2" d="M1468.0091,-678C1468.0091,-678 1515.2512,-678 1515.2512,-678"/>
<polygon fill="#0072b2" stroke="#0072b2" stroke-width="2" points="1515.2513,-681.5001 1525.2512,-678 1515.2512,-674.5001 1515.2513,-681.5001"/>
</g>
<!-- node_6557e20b -->
<g id="node19" class="node">
<title>node_6557e20b</title>
<path fill="#6db30f" stroke="#000000" d="M1440.072,-114C1440.072,-114 1337.4768,-114 1337.4768,-114 1331.4768,-114 1325.4768,-108 1325.4768,-102 1325.4768,-102 1325.4768,-90 1325.4768,-90 1325.4768,-84 1331.4768,-78 1337.4768,-78 1337.4768,-78 1440.072,-78 1440.072,-78 1446.072,-78 1452.072,-84 1452.072,-90 1452.072,-90 1452.072,-102 1452.072,-102 1452.072,-108 1446.072,-114 1440.072,-114"/>
<text text-anchor="middle" x="1388.7744" y="-91.8" font-family="Times,serif" font-size="14.00" fill="#000000">403: enrich_token()</text>
</g>
<!-- node_2bc925f0 -->
<g id="node20" class="node">
<title>node_2bc925f0</title>
<path fill="#6db30f" stroke="#000000" d="M1444.9071,-168C1444.9071,-168 1332.6417,-168 1332.6417,-168 1326.6417,-168 1320.6417,-162 1320.6417,-156 1320.6417,-156 1320.6417,-144 1320.6417,-144 1320.6417,-138 1326.6417,-132 1332.6417,-132 1332.6417,-132 1444.9071,-132 1444.9071,-132 1450.9071,-132 1456.9071,-138 1456.9071,-144 1456.9071,-144 1456.9071,-156 1456.9071,-156 1456.9071,-162 1450.9071,-168 1444.9071,-168"/>
<text text-anchor="middle" x="1388.7744" y="-145.8" font-family="Times,serif" font-size="14.00" fill="#000000">381: validate_token()</text>
</g>
<!-- node_3bb680cc -->
<g id="node22" class="node">
<title>node_3bb680cc</title>
<path fill="#cccccc" stroke="#000000" d="M1240.6579,-60C1240.6579,-60 1067.6059,-60 1067.6059,-60 1061.6059,-60 1055.6059,-54 1055.6059,-48 1055.6059,-48 1055.6059,-36 1055.6059,-36 1055.6059,-30 1061.6059,-24 1067.6059,-24 1067.6059,-24 1240.6579,-24 1240.6579,-24 1246.6579,-24 1252.6579,-30 1252.6579,-36 1252.6579,-36 1252.6579,-48 1252.6579,-48 1252.6579,-54 1246.6579,-60 1240.6579,-60"/>
<text text-anchor="middle" x="1154.1319" y="-37.8" font-family="Times,serif" font-size="14.00" fill="#000000">348: _create_sentence_context()</text>
</g>
<!-- node_3bb680cc&#45;&gt;node_6557e20b -->
<g id="edge24" class="edge">
<title>node_3bb680cc&#45;&gt;node_6557e20b</title>
<path fill="none" stroke="#f0e442" stroke-width="2" d="M1248.7364,-60.2819C1248.7364,-75.9478 1248.7364,-96 1248.7364,-96 1248.7364,-96 1315.3111,-96 1315.3111,-96"/>
<polygon fill="#f0e442" stroke="#f0e442" stroke-width="2" points="1315.3112,-99.5001 1325.3111,-96 1315.3111,-92.5001 1315.3112,-99.5001"/>
</g>
<!-- node_63f40cc3 -->
<g id="node23" class="node">
<title>node_63f40cc3</title>
<path fill="#6db30f" stroke="#000000" d="M1226.6887,-114C1226.6887,-114 1081.5751,-114 1081.5751,-114 1075.5751,-114 1069.5751,-108 1069.5751,-102 1069.5751,-102 1069.5751,-90 1069.5751,-90 1069.5751,-84 1075.5751,-78 1081.5751,-78 1081.5751,-78 1226.6887,-78 1226.6887,-78 1232.6887,-78 1238.6887,-84 1238.6887,-90 1238.6887,-90 1238.6887,-102 1238.6887,-102 1238.6887,-108 1232.6887,-114 1226.6887,-114"/>
<text text-anchor="middle" x="1154.1319" y="-91.8" font-family="Times,serif" font-size="14.00" fill="#000000">333: _extract_first_words()</text>
</g>
<!-- node_82235d45 -->
<g id="node24" class="node">
<title>node_82235d45</title>
<path fill="#6db30f" stroke="#000000" d="M991.3724,-87C991.3724,-87 843.6092,-87 843.6092,-87 837.6092,-87 831.6092,-81 831.6092,-75 831.6092,-75 831.6092,-63 831.6092,-63 831.6092,-57 837.6092,-51 843.6092,-51 843.6092,-51 991.3724,-51 991.3724,-51 997.3724,-51 1003.3724,-57 1003.3724,-63 1003.3724,-63 1003.3724,-75 1003.3724,-75 1003.3724,-81 997.3724,-87 991.3724,-87"/>
<text text-anchor="middle" x="917.4908" y="-64.8" font-family="Times,serif" font-size="14.00" fill="#000000">294: _extract_sentence_id()</text>
</g>
<!-- node_b9c38f81 -->
<g id="node25" class="node">
<title>node_b9c38f81</title>
<path fill="#966f33" stroke="#000000" d="M767.5532,-87C767.5532,-87 605.79,-87 605.79,-87 599.79,-87 593.79,-81 593.79,-75 593.79,-75 593.79,-63 593.79,-63 593.79,-57 599.79,-51 605.79,-51 605.79,-51 767.5532,-51 767.5532,-51 773.5532,-51 779.5532,-57 779.5532,-63 779.5532,-63 779.5532,-75 779.5532,-75 779.5532,-81 773.5532,-87 767.5532,-87"/>
<text text-anchor="middle" x="686.6716" y="-64.8" font-family="Times,serif" font-size="14.00" fill="#000000">315: _extract_sentence_num()</text>
</g>
<!-- node_b9c38f81&#45;&gt;node_82235d45 -->
<g id="edge25" class="edge">
<title>node_b9c38f81&#45;&gt;node_82235d45</title>
<path fill="none" stroke="#e69f00" stroke-width="2" d="M779.5569,-69C779.5569,-69 821.5185,-69 821.5185,-69"/>
<polygon fill="#e69f00" stroke="#e69f00" stroke-width="2" points="821.5186,-72.5001 831.5185,-69 821.5185,-65.5001 821.5186,-72.5001"/>
</g>
<!-- node_8b2b4219 -->
<g id="node26" class="node">
<title>node_8b2b4219</title>
<path fill="#6db30f" stroke="#000000" d="M1231.2477,-168C1231.2477,-168 1077.0161,-168 1077.0161,-168 1071.0161,-168 1065.0161,-162 1065.0161,-156 1065.0161,-156 1065.0161,-144 1065.0161,-144 1065.0161,-138 1071.0161,-132 1077.0161,-132 1077.0161,-132 1231.2477,-132 1231.2477,-132 1237.2477,-132 1243.2477,-138 1243.2477,-144 1243.2477,-144 1243.2477,-156 1243.2477,-156 1243.2477,-162 1237.2477,-168 1231.2477,-168"/>
<text text-anchor="middle" x="1154.1319" y="-145.8" font-family="Times,serif" font-size="14.00" fill="#000000">280: is_sentence_boundary()</text>
</g>
<!-- node_9f598d6b -->
<g id="node27" class="node">
<title>node_9f598d6b</title>
<path fill="#966f33" stroke="#000000" d="M725.5742,-168C725.5742,-168 647.769,-168 647.769,-168 641.769,-168 635.769,-162 635.769,-156 635.769,-156 635.769,-144 635.769,-144 635.769,-138 641.769,-132 647.769,-132 647.769,-132 725.5742,-132 725.5742,-132 731.5742,-132 737.5742,-138 737.5742,-144 737.5742,-144 737.5742,-156 737.5742,-156 737.5742,-162 731.5742,-168 725.5742,-168"/>
<text text-anchor="middle" x="686.6716" y="-145.8" font-family="Times,serif" font-size="14.00" fill="#000000">42: parse_file()</text>
</g>
<!-- node_9f598d6b&#45;&gt;node_e588f6df -->
<g id="edge26" class="edge">
<title>node_9f598d6b&#45;&gt;node_e588f6df</title>
<path fill="none" stroke="#009e73" stroke-width="2" d="M737.6116,-163.5C737.6116,-163.5 810.6843,-163.5 810.6843,-163.5"/>
<polygon fill="#009e73" stroke="#009e73" stroke-width="2" points="810.6843,-167.0001 820.6843,-163.5 810.6842,-160.0001 810.6843,-167.0001"/>
</g>
<!-- node_e588f6df&#45;&gt;node_2bc925f0 -->
<g id="edge27" class="edge">
<title>node_e588f6df&#45;&gt;node_2bc925f0</title>
<path fill="none" stroke="#cc79a7" stroke-width="2" d="M1014.1963,-177C1152.358,-177 1389.7364,-177 1389.7364,-177 1389.7364,-177 1389.7364,-176.1159 1389.7364,-176.1159"/>
<polygon fill="#cc79a7" stroke="#cc79a7" stroke-width="2" points="1393.2365,-178.1591 1389.7364,-168.1592 1386.2365,-178.1592 1393.2365,-178.1591"/>
</g>
<!-- node_e588f6df&#45;&gt;node_3bb680cc -->
<g id="edge28" class="edge">
<title>node_e588f6df&#45;&gt;node_3bb680cc</title>
<path fill="none" stroke="#cc79a7" stroke-width="2" d="M1007.7364,-158.8102C1007.7364,-124.9158 1007.7364,-55.5 1007.7364,-55.5 1007.7364,-55.5 1045.2668,-55.5 1045.2668,-55.5"/>
<polygon fill="#cc79a7" stroke="#cc79a7" stroke-width="2" points="1045.2669,-59.0001 1055.2668,-55.5 1045.2668,-52.0001 1045.2669,-59.0001"/>
</g>
<!-- node_e588f6df&#45;&gt;node_63f40cc3 -->
<g id="edge30" class="edge">
<title>node_e588f6df&#45;&gt;node_63f40cc3</title>
<path fill="none" stroke="#cc79a7" stroke-width="2" d="M1010.7364,-158.8706C1010.7364,-136.2485 1010.7364,-100.5 1010.7364,-100.5 1010.7364,-100.5 1059.4746,-100.5 1059.4746,-100.5"/>
<polygon fill="#cc79a7" stroke="#cc79a7" stroke-width="2" points="1059.4746,-104.0001 1069.4746,-100.5 1059.4745,-97.0001 1059.4746,-104.0001"/>
</g>
<!-- node_e588f6df&#45;&gt;node_8b2b4219 -->
<g id="edge31" class="edge">
<title>node_e588f6df&#45;&gt;node_8b2b4219</title>
<path fill="none" stroke="#cc79a7" stroke-width="2" d="M1014.4246,-163.5C1014.4246,-163.5 1054.9592,-163.5 1054.9592,-163.5"/>
<polygon fill="#cc79a7" stroke="#cc79a7" stroke-width="2" points="1054.9592,-167.0001 1064.9592,-163.5 1054.9591,-160.0001 1054.9592,-167.0001"/>
</g>
<!-- node_7d1b8ddb -->
<g id="node29" class="node">
<title>node_7d1b8ddb</title>
<path fill="#6db30f" stroke="#000000" d="M1216.9795,-222C1216.9795,-222 1091.2843,-222 1091.2843,-222 1085.2843,-222 1079.2843,-216 1079.2843,-210 1079.2843,-210 1079.2843,-198 1079.2843,-198 1079.2843,-192 1085.2843,-186 1091.2843,-186 1091.2843,-186 1216.9795,-186 1216.9795,-186 1222.9795,-186 1228.9795,-192 1228.9795,-198 1228.9795,-198 1228.9795,-210 1228.9795,-210 1228.9795,-216 1222.9795,-222 1216.9795,-222"/>
<text text-anchor="middle" x="1154.1319" y="-199.8" font-family="Times,serif" font-size="14.00" fill="#000000">186: parse_token_line()</text>
</g>
<!-- node_e588f6df&#45;&gt;node_7d1b8ddb -->
<g id="edge32" class="edge">
<title>node_e588f6df&#45;&gt;node_7d1b8ddb</title>
<path fill="none" stroke="#cc79a7" stroke-width="2" d="M1014.4246,-190.5C1014.4246,-190.5 1069.4475,-190.5 1069.4475,-190.5"/>
<polygon fill="#cc79a7" stroke="#cc79a7" stroke-width="2" points="1069.4476,-194.0001 1079.4475,-190.5 1069.4475,-187.0001 1069.4476,-194.0001"/>
</g>
</g>
</svg>
